<svg id="Capa_1" data-name="Capa 1" xmlns="http://www.w3.org/2000/svg" viewBox="0 0 80.83 71.82"><defs><style>.cls-1{fill:#59a0d3;}</style></defs><title>Mesa de trabajo 1</title><path class="cls-1" d="M2.68,29.57h0a40.27,40.27,0,0,1,3.57-7.1h0Q7,21.25,7.87,20.1h0q.43-.58.88-1.15h0q.45-.57.92-1.12h0a40.41,40.41,0,0,1,61.72.29h0q.94,1.12,1.8,2.31h0q.84,1.16,1.59,2.37h0a40.31,40.31,0,0,1,2.46,4.61h0c.18.39.35.79.51,1.19h0l.07.18h0a40.22,40.22,0,0,1,2.94,13.43c0-.6,0-1.21,0-1.82A40.42,40.42,0,0,0,0,40.42c0,.61,0,1.22,0,1.82A40.24,40.24,0,0,1,2.68,29.57Z"/><path class="cls-1" d="M52.42,56.19l-2-1.75Z"/><path class="cls-1" d="M53.4,57c8.34,6.91,13.4,9.52,20,10.39h0C66.8,66.52,61.74,63.92,53.4,57Z"/><path class="cls-1" d="M45,35l.51-.46-.08.06Z"/><path class="cls-1" d="M14.88,19.29A72.88,72.88,0,0,1,38,32.7,72.88,72.88,0,0,0,14.88,19.29Z"/><path class="cls-1" d="M14.88,19.29A72.88,72.88,0,0,1,38,32.7,72.88,72.88,0,0,0,14.88,19.29Z"/><path class="cls-1" d="M11.71,18.32q-1-.28-2-.5h0Q10.66,18,11.71,18.32Z"/><path class="cls-1" d="M11.71,18.32q-1-.28-2-.5h0Q10.66,18,11.71,18.32Z"/><path class="cls-1" d="M66.21,56.4C62.57,54.28,58.48,51.06,53,46.22h0C58.48,51.06,62.57,54.28,66.21,56.4Z"/><path class="cls-1" d="M66.21,56.4C62.57,54.28,58.48,51.06,53,46.22h0C58.48,51.06,62.57,54.28,66.21,56.4Z"/><path class="cls-1" d="M51.62,47.37l-.64.56c11.67,10.3,17.31,13.7,25.36,14.65q.31-.61.61-1.23v0q.29-.62.56-1.24h0a27,27,0,0,1-6.22-1.31q-.72-.25-1.44-.54l-1-.42-1-.47-1-.52-.72-.41C62.57,54.28,58.48,51.06,53,46.22Z"/><path class="cls-1" d="M51.62,47.37l-.64.56c11.67,10.3,17.31,13.7,25.36,14.65q.31-.61.61-1.23v0q.29-.62.56-1.24h0a27,27,0,0,1-6.22-1.31q-.72-.25-1.44-.54l-1-.42-1-.47-1-.52-.72-.41C62.57,54.28,58.48,51.06,53,46.22Z"/><path class="cls-1" d="M14.88,19.29l-.6-.2c-.91-.3-1.77-.55-2.57-.77s-1.37-.35-2-.5h0a24,24,0,0,1,2.35.73c6.17,2.06,15.39,6.52,25.53,16.1l.37-.34.93-.84L38,32.7A72.88,72.88,0,0,0,14.88,19.29Z"/><path class="cls-1" d="M14.88,19.29l-.6-.2c-.91-.3-1.77-.55-2.57-.77s-1.37-.35-2-.5h0a24,24,0,0,1,2.35.73c6.17,2.06,15.39,6.52,25.53,16.1l.37-.34.93-.84L38,32.7A72.88,72.88,0,0,0,14.88,19.29Z"/><path class="cls-1" d="M6.24,22.47h0l0,0a24.16,24.16,0,0,1,2.32.72c6,2,14.91,6.29,24.74,15.36l1.63-1.49C24.57,28.61,15.39,24.84,9.22,23.18c-1-.28-2-.51-3-.71h0Z"/><path class="cls-1" d="M6.24,22.47h0l0,0a24.16,24.16,0,0,1,2.32.72c6,2,14.91,6.29,24.74,15.36l1.63-1.49C24.57,28.61,15.39,24.84,9.22,23.18c-1-.28-2-.51-3-.71h0Z"/><circle class="cls-1" cx="4.85" cy="24.85" transform="translate(-19.4 17.55) rotate(-62.2)"/><circle class="cls-1" cx="4.85" cy="24.85" transform="translate(-19.4 17.55) rotate(-62.2)"/><path class="cls-1" d="M73.42,67.39c.26-.36.51-.73.75-1.11l.12-.18q.37-.57.73-1.16C66.83,64.12,61.38,60.79,49,49.73l-.45.4-.1.09L47,51.5q1.75,1.56,3.33,2.94l2,1.75,1,.82c8.34,6.91,13.4,9.52,20,10.39h0Z"/><path class="cls-1" d="M73.42,67.39c.26-.36.51-.73.75-1.11l.12-.18q.37-.57.73-1.16C66.83,64.12,61.38,60.79,49,49.73l-.45.4-.1.09L47,51.5q1.75,1.56,3.33,2.94l2,1.75,1,.82c8.34,6.91,13.4,9.52,20,10.39h0Z"/><path class="cls-1" d="M70,71.63h0l-.71-.19Z"/><path class="cls-1" d="M70,71.63h0l-.71-.19Z"/><path class="cls-1" d="M6,27.81c5.85,2,13.94,5.74,23.41,14.3L30.6,41C18.12,30.87,8.91,27.89,3.73,27.08v0C4.7,27.35,4.83,27.42,6,27.81Z"/><path class="cls-1" d="M6,27.81c5.85,2,13.94,5.74,23.41,14.3L30.6,41C18.12,30.87,8.91,27.89,3.73,27.08v0C4.7,27.35,4.83,27.42,6,27.81Z"/><path class="cls-1" d="M52.41,62.8l.21.15.91.63.13.09,1,.68.17.11.85.55.18.12,1,.61.1.06.85.52.19.12q.93.55,1.84,1.05l.19.11.84.45.06,0,.89.45.18.09.75.36.14.07.86.39.14.06.73.31.17.07.84.34.06,0,.77.29.19.07.82.29.82.26.19.06.71.21.11,0,.71.19q1-1.08,1.93-2.23h0c-7.62-1.73-15.45-6-27.08-15.87l-2,1.76c3.06,2.6,5.88,4.84,8.5,6.75h0Z"/><path class="cls-1" d="M52.41,62.8l.21.15.91.63.13.09,1,.68.17.11.85.55.18.12,1,.61.1.06.85.52.19.12q.93.55,1.84,1.05l.19.11.84.45.06,0,.89.45.18.09.75.36.14.07.86.39.14.06.73.31.17.07.84.34.06,0,.77.29.19.07.82.29.82.26.19.06.71.21.11,0,.71.19q1-1.08,1.93-2.23h0c-7.62-1.73-15.45-6-27.08-15.87l-2,1.76c3.06,2.6,5.88,4.84,8.5,6.75h0Z"/><path class="cls-1" d="M45.47,34.55C54.93,25.9,63.3,20.81,69.14,18.86c-6,2-14,6.76-23.75,15.76Z"/><path class="cls-1" d="M45.47,34.55C54.93,25.9,63.3,20.81,69.14,18.86c-6,2-14,6.76-23.75,15.76Z"/><path class="cls-1" d="M20.19,56.47c5.19-3.76,11.56-9.49,21-18.17q2.14-2,4.24-3.69c9.7-9,17.77-13.76,23.75-15.76,1.17-.39,1.3-.46,2.28-.71l0,0h0l-1.55.4c-7.24,2-18.4,6.72-30.46,17.87C19.52,54.74,13.61,59.53,3.5,60.52Q4.07,61.8,4.72,63C10.12,62.38,14.43,60.65,20.19,56.47Z"/><path class="cls-1" d="M20.19,56.47c5.19-3.76,11.56-9.49,21-18.17q2.14-2,4.24-3.69c9.7-9,17.77-13.76,23.75-15.76,1.17-.39,1.3-.46,2.28-.71l0,0h0l-1.55.4c-7.24,2-18.4,6.72-30.46,17.87C19.52,54.74,13.61,59.53,3.5,60.52Q4.07,61.8,4.72,63C10.12,62.38,14.43,60.65,20.19,56.47Z"/><path class="cls-1" d="M43.69,42.94q1.77-1.63,3.5-3.07h0c10.22-9.7,19.24-14.26,25.45-16.33,1.13-.38,1.29-.45,2.18-.68l0,0c-.9.19-1.84.41-2.84.68a66.08,66.08,0,0,0-20.41,9.77A90.36,90.36,0,0,0,41.93,41C22,59.44,16.11,64.2,5.95,65.17q.38.61.77,1.21l0,0q.4.6.82,1.19h0C17.64,66.34,24,61.09,43.69,42.94Z"/><path class="cls-1" d="M43.69,42.94q1.77-1.63,3.5-3.07h0c10.22-9.7,19.24-14.26,25.45-16.33,1.13-.38,1.29-.45,2.18-.68l0,0c-.9.19-1.84.41-2.84.68a66.08,66.08,0,0,0-20.41,9.77A90.36,90.36,0,0,0,41.93,41C22,59.44,16.11,64.2,5.95,65.17q.38.61.77,1.21l0,0q.4.6.82,1.19h0C17.64,66.34,24,61.09,43.69,42.94Z"/><path class="cls-1" d="M46.36,48.49c1.69-1.56,3.32-3,4.91-4.3,10-9.39,17.8-14,23.92-16.07,1.09-.36,1.28-.45,2.09-.66l0,0a38.92,38.92,0,0,0-9.53,3C61.64,33.18,53.84,38,44.59,46.58c-16.65,15.39-26,21.06-35.52,23q.47.57,1,1.13l0,0q.48.55,1,1.08h0C20.49,69.56,30.08,63.54,46.36,48.49Z"/><path class="cls-1" d="M46.36,48.49c1.69-1.56,3.32-3,4.91-4.3,10-9.39,17.8-14,23.92-16.07,1.09-.36,1.28-.45,2.09-.66l0,0a38.92,38.92,0,0,0-9.53,3C61.64,33.18,53.84,38,44.59,46.58c-16.65,15.39-26,21.06-35.52,23q.47.57,1,1.13l0,0q.48.55,1,1.08h0C20.49,69.56,30.08,63.54,46.36,48.49Z"/></svg>