<?xml version="1.0" encoding="utf-8"?>
<!-- Generator: Adobe Illustrator 21.0.0, SVG Export Plug-In . SVG Version: 6.00 Build 0)  -->
<svg version="1.1" id="Capa_1" xmlns="http://www.w3.org/2000/svg" xmlns:xlink="http://www.w3.org/1999/xlink" x="0px" y="0px"
	 viewBox="0 0 84.1 84.1" style="enable-background:new 0 0 84.1 84.1;" xml:space="preserve">
<style type="text/css">
	.st0{fill:#59A0D3;}
</style>
<circle cx="42" cy="42" r="42"/>
<g>
	<path class="st0" d="M4.2,29.5L4.2,29.5c1-2.5,2.2-4.9,3.6-7.1l0,0l0,0l0,0c0.5-0.8,1.1-1.6,1.6-2.4c0,0,0,0,0,0l0,0
		c0.3-0.4,0.6-0.8,0.9-1.2l0,0c0,0,0,0,0,0c0,0,0,0,0,0c0.3-0.4,0.6-0.7,0.9-1.1l0,0l0,0h0C18.7,9.1,29.7,3.6,42,3.6
		c12.4,0,23.6,5.6,31,14.5c0,0,0,0,0,0c0,0,0,0,0,0c0,0,0,0,0,0l0,0c0.6,0.7,1.2,1.5,1.8,2.3c0,0,0,0,0,0l0,0l0,0
		c0.6,0.8,1.1,1.6,1.6,2.4c0,0,0,0,0,0l0,0c0.9,1.5,1.7,3,2.5,4.6c0,0,0,0,0,0l0,0h0c0.2,0.4,0.3,0.8,0.5,1.2l0,0
		c0,0.1,0,0.1,0.1,0.2c0,0,0,0,0,0c1.7,4.2,2.7,8.7,2.9,13.4c0-0.6,0-1.2,0-1.8C82.4,18.1,64.3,0,42,0S1.6,18.1,1.6,40.4
		c0,0.6,0,1.2,0,1.8C1.8,37.8,2.7,33.5,4.2,29.5L4.2,29.5z"/>
	<path class="st0" d="M54,56.2c-0.7-0.6-1.3-1.1-2-1.8C52.6,55,53.3,55.6,54,56.2z"/>
	<path class="st0" d="M55,57c8.3,6.9,13.4,9.5,20,10.4c0,0,0,0,0,0c0,0,0,0,0,0C68.4,66.5,63.3,63.9,55,57z"/>
	<path class="st0" d="M46.5,35c0.2-0.2,0.3-0.3,0.5-0.5c0,0-0.1,0-0.1,0.1C46.8,34.7,46.7,34.9,46.5,35z"/>
	<path class="st0" d="M16.4,19.3c6.1,2.1,14.2,6,23.1,13.4C30.6,25.2,22.5,21.3,16.4,19.3z"/>
	<path class="st0" d="M16.4,19.3c6.1,2.1,14.2,6,23.1,13.4C30.6,25.2,22.5,21.3,16.4,19.3z"/>
	<polygon class="st0" points="11.2,17.8 11.2,17.8 11.2,17.8 	"/>
	<polygon class="st0" points="11.2,17.8 11.2,17.8 11.2,17.8 	"/>
	<path class="st0" d="M13.3,18.3c-0.7-0.2-1.4-0.4-2-0.5l0,0C11.9,17.9,12.6,18.1,13.3,18.3z"/>
	<path class="st0" d="M13.3,18.3c-0.7-0.2-1.4-0.4-2-0.5l0,0C11.9,17.9,12.6,18.1,13.3,18.3z"/>
	<path class="st0" d="M67.8,56.4C64.1,54.3,60,51,54.5,46.2h0C60,51,64.1,54.3,67.8,56.4z"/>
	<path class="st0" d="M67.8,56.4C64.1,54.3,60,51,54.5,46.2h0C60,51,64.1,54.3,67.8,56.4z"/>
	<path class="st0" d="M53.2,47.3c-0.2,0.2-0.4,0.4-0.6,0.6c11.7,10.3,17.3,13.7,25.4,14.7c0.2-0.4,0.4-0.8,0.6-1.2c0,0,0,0,0,0
		c0.2-0.4,0.4-0.8,0.6-1.2l0,0c-2.2-0.2-4.2-0.6-6.2-1.3c-0.5-0.2-1-0.3-1.4-0.5c-0.3-0.1-0.6-0.3-1-0.4c-0.3-0.1-0.6-0.3-1-0.5
		c-0.3-0.2-0.7-0.3-1-0.5c-0.2-0.1-0.5-0.3-0.7-0.4C64.1,54.3,60,51,54.5,46.2C54.1,46.6,53.6,46.9,53.2,47.3z"/>
	<path class="st0" d="M53.2,47.3c-0.2,0.2-0.4,0.4-0.6,0.6c11.7,10.3,17.3,13.7,25.4,14.7c0.2-0.4,0.4-0.8,0.6-1.2c0,0,0,0,0,0
		c0.2-0.4,0.4-0.8,0.6-1.2l0,0c-2.2-0.2-4.2-0.6-6.2-1.3c-0.5-0.2-1-0.3-1.4-0.5c-0.3-0.1-0.6-0.3-1-0.4c-0.3-0.1-0.6-0.3-1-0.5
		c-0.3-0.2-0.7-0.3-1-0.5c-0.2-0.1-0.5-0.3-0.7-0.4C64.1,54.3,60,51,54.5,46.2C54.1,46.6,53.6,46.9,53.2,47.3z"/>
	<path class="st0" d="M16.4,19.3c-0.2-0.1-0.4-0.1-0.6-0.2c-0.9-0.3-1.8-0.5-2.6-0.8c-0.7-0.2-1.4-0.4-2-0.5h0
		c1.1,0.3,1.2,0.3,2.4,0.7C19.8,20.6,29,25,39.1,34.6c0.1-0.1,0.2-0.2,0.4-0.3c0.3-0.3,0.6-0.6,0.9-0.8c-0.3-0.3-0.6-0.5-0.9-0.8
		C30.6,25.2,22.5,21.3,16.4,19.3z"/>
	<path class="st0" d="M16.4,19.3c-0.2-0.1-0.4-0.1-0.6-0.2c-0.9-0.3-1.8-0.5-2.6-0.8c-0.7-0.2-1.4-0.4-2-0.5h0
		c1.1,0.3,1.2,0.3,2.4,0.7C19.8,20.6,29,25,39.1,34.6c0.1-0.1,0.2-0.2,0.4-0.3c0.3-0.3,0.6-0.6,0.9-0.8c-0.3-0.3-0.6-0.5-0.9-0.8
		C30.6,25.2,22.5,21.3,16.4,19.3z"/>
	<path class="st0" d="M7.8,22.4L7.8,22.4C7.8,22.5,7.8,22.5,7.8,22.4c1,0.3,1.1,0.4,2.3,0.7c6,2,14.9,6.3,24.7,15.4
		c0.5-0.5,1.1-1,1.6-1.5C26.1,28.6,17,24.8,10.8,23.1C9.7,22.9,8.7,22.6,7.8,22.4L7.8,22.4L7.8,22.4z"/>
	<path class="st0" d="M7.8,22.4L7.8,22.4C7.8,22.5,7.8,22.5,7.8,22.4c1,0.3,1.1,0.4,2.3,0.7c6,2,14.9,6.3,24.7,15.4
		c0.5-0.5,1.1-1,1.6-1.5C26.1,28.6,17,24.8,10.8,23.1C9.7,22.9,8.7,22.6,7.8,22.4L7.8,22.4L7.8,22.4z"/>
	<ellipse transform="matrix(0.4663 -0.8846 0.8846 0.4663 -18.5377 18.9228)" class="st0" cx="6.4" cy="24.8" rx="0" ry="0"/>
	<ellipse transform="matrix(0.4663 -0.8846 0.8846 0.4663 -18.5377 18.9228)" class="st0" cx="6.4" cy="24.8" rx="0" ry="0"/>
	<path class="st0" d="M75,67.4c0.3-0.4,0.5-0.7,0.8-1.1c0-0.1,0.1-0.1,0.1-0.2c0.2-0.4,0.5-0.8,0.7-1.2c-8.2-0.8-13.6-4.1-26.1-15.2
		c-0.1,0.1-0.3,0.3-0.4,0.4L50,50.2c-0.5,0.4-0.9,0.8-1.4,1.3c1.2,1,2.3,2,3.3,2.9c0.7,0.6,1.4,1.2,2,1.8c0.3,0.3,0.7,0.6,1,0.8
		C63.3,63.9,68.4,66.5,75,67.4L75,67.4L75,67.4L75,67.4C75,67.4,75,67.4,75,67.4z"/>
	<path class="st0" d="M75,67.4c0.3-0.4,0.5-0.7,0.8-1.1c0-0.1,0.1-0.1,0.1-0.2c0.2-0.4,0.5-0.8,0.7-1.2c-8.2-0.8-13.6-4.1-26.1-15.2
		c-0.1,0.1-0.3,0.3-0.4,0.4L50,50.2c-0.5,0.4-0.9,0.8-1.4,1.3c1.2,1,2.3,2,3.3,2.9c0.7,0.6,1.4,1.2,2,1.8c0.3,0.3,0.7,0.6,1,0.8
		C63.3,63.9,68.4,66.5,75,67.4L75,67.4L75,67.4L75,67.4C75,67.4,75,67.4,75,67.4z"/>
	<path class="st0" d="M71.5,71.6L71.5,71.6L71.5,71.6c-0.2-0.1-0.5-0.1-0.7-0.2C71.1,71.5,71.3,71.5,71.5,71.6z"/>
	<path class="st0" d="M71.5,71.6L71.5,71.6L71.5,71.6c-0.2-0.1-0.5-0.1-0.7-0.2C71.1,71.5,71.3,71.5,71.5,71.6z"/>
	<path class="st0" d="M7.6,27.8c5.9,2,13.9,5.7,23.4,14.3c0.4-0.4,0.8-0.7,1.2-1.1C19.7,30.8,10.5,27.9,5.3,27.1c0,0,0,0,0,0
		C6.3,27.3,6.4,27.4,7.6,27.8z"/>
	<path class="st0" d="M7.6,27.8c5.9,2,13.9,5.7,23.4,14.3c0.4-0.4,0.8-0.7,1.2-1.1C19.7,30.8,10.5,27.9,5.3,27.1c0,0,0,0,0,0
		C6.3,27.3,6.4,27.4,7.6,27.8z"/>
	<path class="st0" d="M54,62.8c0.1,0,0.1,0.1,0.2,0.1c0.3,0.2,0.6,0.4,0.9,0.6c0,0,0.1,0.1,0.1,0.1c0.3,0.2,0.7,0.5,1,0.7
		c0.1,0,0.1,0.1,0.2,0.1c0.3,0.2,0.6,0.4,0.8,0.6c0.1,0,0.1,0.1,0.2,0.1c0.3,0.2,0.6,0.4,1,0.6c0,0,0.1,0,0.1,0.1
		c0.3,0.2,0.6,0.3,0.9,0.5c0.1,0,0.1,0.1,0.2,0.1c0.6,0.4,1.2,0.7,1.8,1.1c0.1,0,0.1,0.1,0.2,0.1c0.3,0.2,0.6,0.3,0.8,0.4
		c0,0,0,0,0.1,0c0.3,0.2,0.6,0.3,0.9,0.5c0.1,0,0.1,0.1,0.2,0.1c0.3,0.1,0.5,0.2,0.8,0.4c0,0,0.1,0,0.1,0.1c0.3,0.1,0.6,0.3,0.9,0.4
		c0,0,0.1,0,0.1,0.1c0.2,0.1,0.5,0.2,0.7,0.3c0.1,0,0.1,0,0.2,0.1c0.3,0.1,0.6,0.2,0.8,0.3c0,0,0,0,0.1,0c0.3,0.1,0.5,0.2,0.8,0.3
		c0.1,0,0.1,0,0.2,0.1c0.3,0.1,0.5,0.2,0.8,0.3c0.3,0.1,0.5,0.2,0.8,0.3c0.1,0,0.1,0,0.2,0.1c0.2,0.1,0.5,0.1,0.7,0.2
		c0,0,0.1,0,0.1,0c0.2,0.1,0.5,0.1,0.7,0.2c0.7-0.7,1.3-1.5,1.9-2.2l0,0c-7.6-1.7-15.4-6-27.1-15.9c-0.7,0.6-1.3,1.2-2,1.8
		c3.1,2.6,5.9,4.8,8.5,6.8l0,0C53.3,62.3,53.6,62.5,54,62.8z"/>
	<path class="st0" d="M54,62.8c0.1,0,0.1,0.1,0.2,0.1c0.3,0.2,0.6,0.4,0.9,0.6c0,0,0.1,0.1,0.1,0.1c0.3,0.2,0.7,0.5,1,0.7
		c0.1,0,0.1,0.1,0.2,0.1c0.3,0.2,0.6,0.4,0.8,0.6c0.1,0,0.1,0.1,0.2,0.1c0.3,0.2,0.6,0.4,1,0.6c0,0,0.1,0,0.1,0.1
		c0.3,0.2,0.6,0.3,0.9,0.5c0.1,0,0.1,0.1,0.2,0.1c0.6,0.4,1.2,0.7,1.8,1.1c0.1,0,0.1,0.1,0.2,0.1c0.3,0.2,0.6,0.3,0.8,0.4
		c0,0,0,0,0.1,0c0.3,0.2,0.6,0.3,0.9,0.5c0.1,0,0.1,0.1,0.2,0.1c0.3,0.1,0.5,0.2,0.8,0.4c0,0,0.1,0,0.1,0.1c0.3,0.1,0.6,0.3,0.9,0.4
		c0,0,0.1,0,0.1,0.1c0.2,0.1,0.5,0.2,0.7,0.3c0.1,0,0.1,0,0.2,0.1c0.3,0.1,0.6,0.2,0.8,0.3c0,0,0,0,0.1,0c0.3,0.1,0.5,0.2,0.8,0.3
		c0.1,0,0.1,0,0.2,0.1c0.3,0.1,0.5,0.2,0.8,0.3c0.3,0.1,0.5,0.2,0.8,0.3c0.1,0,0.1,0,0.2,0.1c0.2,0.1,0.5,0.1,0.7,0.2
		c0,0,0.1,0,0.1,0c0.2,0.1,0.5,0.1,0.7,0.2c0.7-0.7,1.3-1.5,1.9-2.2l0,0c-7.6-1.7-15.4-6-27.1-15.9c-0.7,0.6-1.3,1.2-2,1.8
		c3.1,2.6,5.9,4.8,8.5,6.8l0,0C53.3,62.3,53.6,62.5,54,62.8z"/>
	<path class="st0" d="M47,34.5c9.5-8.7,17.8-13.7,23.7-15.7C64.7,20.8,56.7,25.6,47,34.5C47,34.6,47,34.5,47,34.5z"/>
	<path class="st0" d="M47,34.5c9.5-8.7,17.8-13.7,23.7-15.7C64.7,20.8,56.7,25.6,47,34.5C47,34.6,47,34.5,47,34.5z"/>
	<path class="st0" d="M21.8,56.4c5.2-3.8,11.6-9.5,21-18.2c1.4-1.3,2.8-2.5,4.2-3.7c9.7-9,17.8-13.8,23.7-15.8
		c1.2-0.4,1.3-0.5,2.3-0.7c0,0,0,0,0,0l0,0c0,0,0,0,0,0c-0.5,0.1-1,0.3-1.5,0.4c-7.2,2-18.4,6.7-30.5,17.9
		C21.1,54.7,15.2,59.5,5.1,60.5c0.4,0.8,0.8,1.7,1.2,2.5C11.7,62.4,16,60.6,21.8,56.4z"/>
	<path class="st0" d="M21.8,56.4c5.2-3.8,11.6-9.5,21-18.2c1.4-1.3,2.8-2.5,4.2-3.7c9.7-9,17.8-13.8,23.7-15.8
		c1.2-0.4,1.3-0.5,2.3-0.7c0,0,0,0,0,0l0,0c0,0,0,0,0,0c-0.5,0.1-1,0.3-1.5,0.4c-7.2,2-18.4,6.7-30.5,17.9
		C21.1,54.7,15.2,59.5,5.1,60.5c0.4,0.8,0.8,1.7,1.2,2.5C11.7,62.4,16,60.6,21.8,56.4z"/>
	<path class="st0" d="M45.3,42.9c1.2-1.1,2.3-2.1,3.5-3.1l0,0C59,30.1,68,25.6,74.2,23.5c1.1-0.4,1.3-0.5,2.2-0.7c0,0,0,0,0,0
		c-0.9,0.2-1.8,0.4-2.8,0.7c-5.1,1.4-12.3,4.1-20.4,9.8C50,35.4,46.8,38,43.5,41c-19.9,18.4-25.8,23.2-36,24.1
		C7.8,65.6,8,66,8.3,66.4c0,0,0,0,0,0c0.3,0.4,0.5,0.8,0.8,1.2v0v0l0,0C19.2,66.3,25.6,61.1,45.3,42.9z"/>
	<path class="st0" d="M45.3,42.9c1.2-1.1,2.3-2.1,3.5-3.1l0,0C59,30.1,68,25.6,74.2,23.5c1.1-0.4,1.3-0.5,2.2-0.7c0,0,0,0,0,0
		c-0.9,0.2-1.8,0.4-2.8,0.7c-5.1,1.4-12.3,4.1-20.4,9.8C50,35.4,46.8,38,43.5,41c-19.9,18.4-25.8,23.2-36,24.1
		C7.8,65.6,8,66,8.3,66.4c0,0,0,0,0,0c0.3,0.4,0.5,0.8,0.8,1.2v0v0l0,0C19.2,66.3,25.6,61.1,45.3,42.9z"/>
	<path class="st0" d="M47.9,48.5c1.7-1.6,3.3-3,4.9-4.3c10-9.4,17.8-14,23.9-16.1c1.1-0.4,1.3-0.4,2.1-0.7c0,0,0,0,0,0
		c-2.4,0.4-5.6,1.2-9.5,3c-6.1,2.8-13.9,7.6-23.1,16.2c-16.7,15.4-26,21.1-35.5,23c0.3,0.4,0.6,0.8,1,1.1c0,0,0,0,0,0
		c0.3,0.4,0.7,0.7,1,1.1l0,0l0,0C22.1,69.5,31.6,63.5,47.9,48.5z"/>
	<path class="st0" d="M47.9,48.5c1.7-1.6,3.3-3,4.9-4.3c10-9.4,17.8-14,23.9-16.1c1.1-0.4,1.3-0.4,2.1-0.7c0,0,0,0,0,0
		c-2.4,0.4-5.6,1.2-9.5,3c-6.1,2.8-13.9,7.6-23.1,16.2c-16.7,15.4-26,21.1-35.5,23c0.3,0.4,0.6,0.8,1,1.1c0,0,0,0,0,0
		c0.3,0.4,0.7,0.7,1,1.1l0,0l0,0C22.1,69.5,31.6,63.5,47.9,48.5z"/>
</g>
</svg>
